<mxfile host="Electron" modified="2024-09-15T05:59:50.168Z" agent="Mozilla/5.0 (Windows NT 10.0; Win64; x64) AppleWebKit/537.36 (KHTML, like Gecko) draw.io/22.0.2 Chrome/114.0.5735.289 Electron/25.8.4 Safari/537.36" etag="n35mvz0IDQixslGqzl4r" version="22.0.2" type="device">
  <diagram name="Page-1" id="hQd8lf_tidvk-xs-_JZE">
    <mxGraphModel dx="2058" dy="1188" grid="1" gridSize="10" guides="1" tooltips="1" connect="1" arrows="1" fold="1" page="1" pageScale="1" pageWidth="850" pageHeight="1100" math="0" shadow="0">
      <root>
        <mxCell id="0" />
        <mxCell id="1" parent="0" />
        <mxCell id="iADBnsqqqtycJU2IvZuR-16" style="edgeStyle=orthogonalEdgeStyle;rounded=0;orthogonalLoop=1;jettySize=auto;html=1;exitX=1;exitY=0.25;exitDx=0;exitDy=0;entryX=0;entryY=0.5;entryDx=0;entryDy=0;" edge="1" parent="1" source="iADBnsqqqtycJU2IvZuR-1" target="iADBnsqqqtycJU2IvZuR-3">
          <mxGeometry relative="1" as="geometry" />
        </mxCell>
        <mxCell id="iADBnsqqqtycJU2IvZuR-17" style="edgeStyle=orthogonalEdgeStyle;rounded=0;orthogonalLoop=1;jettySize=auto;html=1;exitX=0.75;exitY=0;exitDx=0;exitDy=0;entryX=0;entryY=0.5;entryDx=0;entryDy=0;" edge="1" parent="1" source="iADBnsqqqtycJU2IvZuR-1" target="iADBnsqqqtycJU2IvZuR-2">
          <mxGeometry relative="1" as="geometry" />
        </mxCell>
        <mxCell id="iADBnsqqqtycJU2IvZuR-18" style="edgeStyle=orthogonalEdgeStyle;rounded=0;orthogonalLoop=1;jettySize=auto;html=1;exitX=1;exitY=0.75;exitDx=0;exitDy=0;entryX=0;entryY=0.5;entryDx=0;entryDy=0;" edge="1" parent="1" source="iADBnsqqqtycJU2IvZuR-1" target="iADBnsqqqtycJU2IvZuR-4">
          <mxGeometry relative="1" as="geometry" />
        </mxCell>
        <mxCell id="iADBnsqqqtycJU2IvZuR-19" style="edgeStyle=orthogonalEdgeStyle;rounded=0;orthogonalLoop=1;jettySize=auto;html=1;exitX=0.75;exitY=1;exitDx=0;exitDy=0;entryX=0;entryY=0.5;entryDx=0;entryDy=0;" edge="1" parent="1" source="iADBnsqqqtycJU2IvZuR-1" target="iADBnsqqqtycJU2IvZuR-5">
          <mxGeometry relative="1" as="geometry" />
        </mxCell>
        <mxCell id="iADBnsqqqtycJU2IvZuR-1" value="Apprentice Sorcery" style="whiteSpace=wrap;html=1;aspect=fixed;" vertex="1" parent="1">
          <mxGeometry x="60" y="510" width="80" height="80" as="geometry" />
        </mxCell>
        <mxCell id="iADBnsqqqtycJU2IvZuR-14" style="edgeStyle=orthogonalEdgeStyle;rounded=0;orthogonalLoop=1;jettySize=auto;html=1;exitX=1;exitY=0.25;exitDx=0;exitDy=0;" edge="1" parent="1" source="iADBnsqqqtycJU2IvZuR-2" target="iADBnsqqqtycJU2IvZuR-7">
          <mxGeometry relative="1" as="geometry" />
        </mxCell>
        <mxCell id="iADBnsqqqtycJU2IvZuR-15" style="edgeStyle=orthogonalEdgeStyle;rounded=0;orthogonalLoop=1;jettySize=auto;html=1;exitX=1;exitY=0.75;exitDx=0;exitDy=0;" edge="1" parent="1" source="iADBnsqqqtycJU2IvZuR-2" target="iADBnsqqqtycJU2IvZuR-6">
          <mxGeometry relative="1" as="geometry" />
        </mxCell>
        <mxCell id="iADBnsqqqtycJU2IvZuR-2" value="Standard Elementalism" style="whiteSpace=wrap;html=1;aspect=fixed;" vertex="1" parent="1">
          <mxGeometry x="210" y="160" width="80" height="80" as="geometry" />
        </mxCell>
        <mxCell id="iADBnsqqqtycJU2IvZuR-12" style="edgeStyle=orthogonalEdgeStyle;rounded=0;orthogonalLoop=1;jettySize=auto;html=1;exitX=1;exitY=0.75;exitDx=0;exitDy=0;" edge="1" parent="1" source="iADBnsqqqtycJU2IvZuR-3" target="iADBnsqqqtycJU2IvZuR-9">
          <mxGeometry relative="1" as="geometry" />
        </mxCell>
        <mxCell id="iADBnsqqqtycJU2IvZuR-13" style="edgeStyle=orthogonalEdgeStyle;rounded=0;orthogonalLoop=1;jettySize=auto;html=1;exitX=1;exitY=0.25;exitDx=0;exitDy=0;" edge="1" parent="1" source="iADBnsqqqtycJU2IvZuR-3" target="iADBnsqqqtycJU2IvZuR-8">
          <mxGeometry relative="1" as="geometry" />
        </mxCell>
        <mxCell id="iADBnsqqqtycJU2IvZuR-3" value="Standard Necromancy" style="whiteSpace=wrap;html=1;aspect=fixed;" vertex="1" parent="1">
          <mxGeometry x="210" y="400" width="80" height="80" as="geometry" />
        </mxCell>
        <mxCell id="iADBnsqqqtycJU2IvZuR-21" style="edgeStyle=orthogonalEdgeStyle;rounded=0;orthogonalLoop=1;jettySize=auto;html=1;exitX=1;exitY=0.25;exitDx=0;exitDy=0;" edge="1" parent="1" source="iADBnsqqqtycJU2IvZuR-4" target="iADBnsqqqtycJU2IvZuR-11">
          <mxGeometry relative="1" as="geometry" />
        </mxCell>
        <mxCell id="iADBnsqqqtycJU2IvZuR-27" style="edgeStyle=orthogonalEdgeStyle;rounded=0;orthogonalLoop=1;jettySize=auto;html=1;exitX=1;exitY=0.75;exitDx=0;exitDy=0;entryX=0;entryY=0.5;entryDx=0;entryDy=0;" edge="1" parent="1" source="iADBnsqqqtycJU2IvZuR-4" target="iADBnsqqqtycJU2IvZuR-23">
          <mxGeometry relative="1" as="geometry" />
        </mxCell>
        <mxCell id="iADBnsqqqtycJU2IvZuR-4" value="Standard Alteration" style="whiteSpace=wrap;html=1;aspect=fixed;" vertex="1" parent="1">
          <mxGeometry x="210" y="680" width="80" height="80" as="geometry" />
        </mxCell>
        <mxCell id="iADBnsqqqtycJU2IvZuR-25" style="edgeStyle=orthogonalEdgeStyle;rounded=0;orthogonalLoop=1;jettySize=auto;html=1;exitX=1;exitY=0.75;exitDx=0;exitDy=0;entryX=0;entryY=0.5;entryDx=0;entryDy=0;" edge="1" parent="1" source="iADBnsqqqtycJU2IvZuR-5" target="iADBnsqqqtycJU2IvZuR-24">
          <mxGeometry relative="1" as="geometry" />
        </mxCell>
        <mxCell id="iADBnsqqqtycJU2IvZuR-26" style="edgeStyle=orthogonalEdgeStyle;rounded=0;orthogonalLoop=1;jettySize=auto;html=1;exitX=1;exitY=0.25;exitDx=0;exitDy=0;" edge="1" parent="1" source="iADBnsqqqtycJU2IvZuR-5" target="iADBnsqqqtycJU2IvZuR-20">
          <mxGeometry relative="1" as="geometry" />
        </mxCell>
        <mxCell id="iADBnsqqqtycJU2IvZuR-5" value="Standard Conjuring" style="whiteSpace=wrap;html=1;aspect=fixed;" vertex="1" parent="1">
          <mxGeometry x="210" y="910" width="80" height="80" as="geometry" />
        </mxCell>
        <mxCell id="iADBnsqqqtycJU2IvZuR-6" value="Fire Magic" style="whiteSpace=wrap;html=1;aspect=fixed;" vertex="1" parent="1">
          <mxGeometry x="450" y="230" width="80" height="80" as="geometry" />
        </mxCell>
        <mxCell id="iADBnsqqqtycJU2IvZuR-7" value="Ice magic" style="whiteSpace=wrap;html=1;aspect=fixed;" vertex="1" parent="1">
          <mxGeometry x="450" y="110" width="80" height="80" as="geometry" />
        </mxCell>
        <mxCell id="iADBnsqqqtycJU2IvZuR-8" value="Raising" style="whiteSpace=wrap;html=1;aspect=fixed;" vertex="1" parent="1">
          <mxGeometry x="450" y="360" width="80" height="80" as="geometry" />
        </mxCell>
        <mxCell id="iADBnsqqqtycJU2IvZuR-9" value="Life Control" style="whiteSpace=wrap;html=1;aspect=fixed;" vertex="1" parent="1">
          <mxGeometry x="450" y="470" width="80" height="80" as="geometry" />
        </mxCell>
        <mxCell id="iADBnsqqqtycJU2IvZuR-11" value="Shapeshifting" style="whiteSpace=wrap;html=1;aspect=fixed;" vertex="1" parent="1">
          <mxGeometry x="450" y="600" width="80" height="80" as="geometry" />
        </mxCell>
        <mxCell id="iADBnsqqqtycJU2IvZuR-20" value="Entity Contact" style="whiteSpace=wrap;html=1;aspect=fixed;" vertex="1" parent="1">
          <mxGeometry x="450" y="850" width="80" height="80" as="geometry" />
        </mxCell>
        <mxCell id="iADBnsqqqtycJU2IvZuR-23" value="Hindering" style="whiteSpace=wrap;html=1;aspect=fixed;" vertex="1" parent="1">
          <mxGeometry x="450" y="720" width="80" height="80" as="geometry" />
        </mxCell>
        <mxCell id="iADBnsqqqtycJU2IvZuR-24" value="Enchanting" style="whiteSpace=wrap;html=1;aspect=fixed;" vertex="1" parent="1">
          <mxGeometry x="450" y="980" width="80" height="80" as="geometry" />
        </mxCell>
      </root>
    </mxGraphModel>
  </diagram>
</mxfile>
